<svg xmlns="http://www.w3.org/2000/svg" viewBox="0 0 1600 900" width="1600" height="900">
<defs>
<filter id="wob" x="-5%" y="-5%" width="110%" height="110%"><feTurbulence type="fractalNoise" baseFrequency="0.02" numOctaves="2" seed="7" result="n"/><feDisplacementMap in="SourceGraphic" in2="n" scale="3.5"/></filter>
<filter id="wobt" x="-5%" y="-5%" width="110%" height="110%"><feTurbulence type="fractalNoise" baseFrequency="0.03" numOctaves="1" seed="3" result="n"/><feDisplacementMap in="SourceGraphic" in2="n" scale="2.5"/></filter>
<pattern id="hatchR" width="12" height="12" patternUnits="userSpaceOnUse" patternTransform="rotate(45)"><line x1="0" y1="0" x2="0" y2="12" stroke="#d63a2f" stroke-width="2.4" opacity="0.55"/></pattern>
<pattern id="hatchK" width="9" height="9" patternUnits="userSpaceOnUse" patternTransform="rotate(-35)"><line x1="0" y1="0" x2="0" y2="9" stroke="#111" stroke-width="1.3" opacity="0.4"/></pattern>
<marker id="arr" viewBox="0 0 12 12" refX="9" refY="6" markerWidth="9" markerHeight="9" orient="auto"><path d="M1 1 L10 6 L1 11" fill="none" stroke="context-stroke" stroke-width="2" stroke-linecap="round" stroke-linejoin="round"/></marker>
</defs>
<rect width="1600" height="900" fill="#fff"/>
<g filter="url(#wob)" fill="none" stroke="#111" stroke-width="3" stroke-linecap="round" stroke-linejoin="round">
<path d="M527 142 C695 152 905 146 1073 140" stroke="#d63a2f" stroke-width="3.5"/><g stroke-width="2" opacity="0.7"><path d="M100 741 l6 1"/><path d="M137 739 l8 1"/><path d="M174 737 l10 1"/><path d="M211 735 l7 1"/><path d="M248 742 l9 1"/><path d="M285 740 l6 1"/><path d="M322 738 l8 1"/><path d="M359 736 l10 1"/><path d="M396 734 l7 1"/><path d="M433 741 l9 1"/><path d="M470 739 l6 1"/><path d="M507 737 l8 1"/><path d="M544 735 l10 1"/><path d="M581 742 l7 1"/><path d="M618 740 l9 1"/><path d="M655 738 l6 1"/><path d="M692 736 l8 1"/><path d="M729 734 l10 1"/><path d="M766 741 l7 1"/><path d="M803 739 l9 1"/><path d="M840 737 l6 1"/><path d="M877 735 l8 1"/><path d="M914 742 l10 1"/><path d="M951 740 l7 1"/><path d="M988 738 l9 1"/><path d="M1025 736 l6 1"/><path d="M1062 734 l8 1"/><path d="M1099 741 l10 1"/><path d="M1136 739 l7 1"/><path d="M1173 737 l9 1"/><path d="M1210 735 l6 1"/><path d="M1247 742 l8 1"/><path d="M1284 740 l10 1"/><path d="M1321 738 l7 1"/><path d="M1358 736 l9 1"/><path d="M1395 734 l6 1"/><path d="M1432 741 l8 1"/><path d="M1469 739 l10 1"/></g><path d="M505 716 C502 640 508 560 510 490 Q560 455 610 490 C612 560 618 640 615 716"/><path d="M745 716 C742 640 748 560 750 490 Q800 455 850 490 C852 560 858 640 855 716"/><path d="M985 716 C982 640 988 560 990 490 Q1040 455 1090 490 C1092 560 1098 640 1095 716"/><path d="M1225 716 C1222 640 1228 560 1230 490 Q1280 455 1330 490 C1332 560 1338 640 1335 716"/><path d="M1445 716 C1442 640 1448 560 1450 490 Q1500 455 1550 490 C1552 560 1558 640 1555 716"/><g transform="translate(170,720) scale(1) scale(-1,1)">
<g transform="skewX(-6)"><path d="M-40 -152 C-72 -122 -74 -60 -54 -22 C-32 2 34 2 50 -26 C68 -72 64 -128 32 -154 C10 -170 -20 -168 -40 -152 Z" fill="#111"/>
<path d="M42 -126 C48 -106 48 -84 44 -66" stroke="#fff" stroke-width="2.4" opacity="0.5"/>
<circle cx="-22" cy="-108" r="9" fill="#fff" stroke="none"/><circle cx="12" cy="-110" r="9" fill="#fff" stroke="none"/>
<path d="M-16 -86 Q-4 -94 8 -86" stroke="#fff" stroke-width="3"/></g>
<path d="M-28 -6 L-40 44 M-40 44 L-62 50 M22 -8 L36 44 M36 44 L58 46" stroke-width="6"/>
<path d="M-52 -112 C-80 -122 -102 -146 -113 -170 M-48 -82 C-80 -96 -104 -134 -118 -160" stroke-width="6"/><circle cx="-114" cy="-172" r="7" fill="#111"/><circle cx="-119" cy="-160" r="7" fill="#111"/></g><path d="M284 548 L352 590 M289 558 L372 600"/><path d="M350 580 L470 572 L448 646 L368 650 Z" fill="#fff"/><circle cx="410" cy="684" r="32" fill="#fff"/><path d="M410 652 L410 716 M378 684 L442 684" stroke-width="1.6" opacity=".6"/><g transform="translate(380,566) rotate(-8)"><rect x="-22.0" y="-7.0" width="44" height="14" fill="#fff" stroke="#111" stroke-width="2.4"/><path d="M-13.0 -2 L6.0 -2 M-13.0 3 L-4.0 3" stroke="#111" stroke-width="1.4" opacity="0.7"/></g><g transform="translate(406,558) rotate(-1)"><rect x="-22.0" y="-7.0" width="44" height="14" fill="#fff" stroke="#111" stroke-width="2.4"/><path d="M-13.0 -2 L6.0 -2 M-13.0 3 L-4.0 3" stroke="#111" stroke-width="1.4" opacity="0.7"/></g><g transform="translate(432,566) rotate(6)"><rect x="-22.0" y="-7.0" width="44" height="14" fill="#fff" stroke="#111" stroke-width="2.4"/><path d="M-13.0 -2 L6.0 -2 M-13.0 3 L-4.0 3" stroke="#111" stroke-width="1.4" opacity="0.7"/></g><g transform="translate(458,558) rotate(13)"><rect x="-22.0" y="-7.0" width="44" height="14" fill="#fff" stroke="#111" stroke-width="2.4"/><path d="M-13.0 -2 L6.0 -2 M-13.0 3 L-4.0 3" stroke="#111" stroke-width="1.4" opacity="0.7"/></g><path d="M200 318 C230 400 330 500 380 545" stroke="#d63a2f" stroke-width="2.2" marker-end="url(#arr)"/>
</g>
<g filter="url(#wobt)" font-family="'Bradley Hand','Marker Felt','Chalkboard SE',cursive" font-weight="bold">
<text x="800" y="120" font-size="58" fill="#111" text-anchor="middle">Le chemin d'un modèle</text><text x="560" y="430" font-size="40" fill="#111" text-anchor="middle">objectif</text><text x="560" y="610" font-size="56" fill="#d63a2f" text-anchor="middle">1</text><text x="800" y="430" font-size="40" fill="#111" text-anchor="middle">explorer</text><text x="800" y="610" font-size="56" fill="#d63a2f" text-anchor="middle">2</text><text x="1040" y="430" font-size="40" fill="#111" text-anchor="middle">nettoyer</text><text x="1040" y="610" font-size="56" fill="#d63a2f" text-anchor="middle">3</text><text x="1280" y="430" font-size="40" fill="#111" text-anchor="middle">entraîner</text><text x="1280" y="610" font-size="56" fill="#d63a2f" text-anchor="middle">4</text><text x="1500" y="430" font-size="40" fill="#111" text-anchor="middle">évaluer</text><text x="1500" y="610" font-size="56" fill="#d63a2f" text-anchor="middle">5</text><text x="120" y="300" font-size="40" fill="#d63a2f" text-anchor="start">tes lignes de données</text>
</g>
</svg>