<svg xmlns="http://www.w3.org/2000/svg" viewBox="0 0 1600 900" width="1600" height="900">
<defs>
<filter id="wob" x="-5%" y="-5%" width="110%" height="110%"><feTurbulence type="fractalNoise" baseFrequency="0.02" numOctaves="2" seed="7" result="n"/><feDisplacementMap in="SourceGraphic" in2="n" scale="3.5"/></filter>
<filter id="wobt" x="-5%" y="-5%" width="110%" height="110%"><feTurbulence type="fractalNoise" baseFrequency="0.03" numOctaves="1" seed="3" result="n"/><feDisplacementMap in="SourceGraphic" in2="n" scale="2.5"/></filter>
<pattern id="hatchR" width="12" height="12" patternUnits="userSpaceOnUse" patternTransform="rotate(45)"><line x1="0" y1="0" x2="0" y2="12" stroke="#d63a2f" stroke-width="2.4" opacity="0.55"/></pattern>
<pattern id="hatchK" width="9" height="9" patternUnits="userSpaceOnUse" patternTransform="rotate(-35)"><line x1="0" y1="0" x2="0" y2="9" stroke="#111" stroke-width="1.3" opacity="0.4"/></pattern>
<marker id="arr" viewBox="0 0 12 12" refX="9" refY="6" markerWidth="9" markerHeight="9" orient="auto"><path d="M1 1 L10 6 L1 11" fill="none" stroke="context-stroke" stroke-width="2" stroke-linecap="round" stroke-linejoin="round"/></marker>
</defs>
<rect width="1600" height="900" fill="#fff"/>
<g filter="url(#wob)" fill="none" stroke="#111" stroke-width="3" stroke-linecap="round" stroke-linejoin="round">
<path d="M514 142 C690 152 910 146 1086 140" stroke="#d63a2f" stroke-width="3.5"/><path d="M520 281 C560 278 610 282 650 280 C652 320 648 370 650 410 C610 412 560 408 520 410 C518 370 522 320 520 281 Z" fill="url(#hatchK)" stroke-width="3.4"/><path d="M650 281 C690 278 740 282 780 280 C782 320 778 370 780 410 C740 412 690 408 650 410 C648 370 652 320 650 281 Z" fill="#fff" stroke-width="3.4"/><path d="M780 281 C820 278 870 282 910 280 C912 320 908 370 910 410 C870 412 820 408 780 410 C778 370 782 320 780 281 Z" fill="#fff" stroke-width="3.4"/><path d="M520 411 C560 408 610 412 650 410 C652 450 648 500 650 540 C610 542 560 538 520 540 C518 500 522 450 520 411 Z" fill="#fff" stroke-width="3.4"/><path d="M650 411 C690 408 740 412 780 410 C782 450 778 500 780 540 C740 542 690 538 650 540 C648 500 652 450 650 411 Z" fill="url(#hatchK)" stroke-width="3.4"/><path d="M780 411 C820 408 870 412 910 410 C912 450 908 500 910 540 C870 542 820 538 780 540 C778 500 782 450 780 411 Z" fill="url(#hatchR)" stroke-width="3.4"/><path d="M520 541 C560 538 610 542 650 540 C652 580 648 630 650 670 C610 672 560 668 520 670 C518 630 522 580 520 541 Z" fill="#fff" stroke-width="3.4"/><path d="M650 541 C690 538 740 542 780 540 C782 580 778 630 780 670 C740 672 690 668 650 670 C648 630 652 580 650 541 Z" fill="url(#hatchR)" stroke-width="3.4"/><path d="M780 541 C820 538 870 542 910 540 C912 580 908 630 910 670 C870 672 820 668 780 670 C778 630 782 580 780 541 Z" fill="url(#hatchK)" stroke-width="3.4"/><g transform="translate(1250,730) scale(1) ">
<g transform="skewX(-6)"><path d="M-40 -152 C-72 -122 -74 -60 -54 -22 C-32 2 34 2 50 -26 C68 -72 64 -128 32 -154 C10 -170 -20 -168 -40 -152 Z" fill="#111"/>
<path d="M42 -126 C48 -106 48 -84 44 -66" stroke="#fff" stroke-width="2.4" opacity="0.5"/>
<circle cx="-22" cy="-108" r="9" fill="#fff" stroke="none"/><circle cx="12" cy="-110" r="9" fill="#fff" stroke="none"/>
<path d="M-16 -86 Q-4 -94 8 -86" stroke="#fff" stroke-width="3"/></g>
<path d="M-28 -6 L-40 44 M-40 44 L-62 50 M22 -8 L36 44 M36 44 L58 46" stroke-width="6"/>
<path d="M-52 -112 C-80 -122 -102 -146 -113 -170 M-48 -82 C-80 -96 -104 -134 -118 -160" stroke-width="6"/><circle cx="-114" cy="-172" r="7" fill="#111"/><circle cx="-119" cy="-160" r="7" fill="#111"/></g><path d="M1136 558 L925 480" stroke-width="5"/><path d="M1060 415 C1040 440 1000 460 940 470" stroke="#d63a2f" stroke-width="2.2" marker-end="url(#arr)"/>
</g>
<g filter="url(#wobt)" font-family="'Bradley Hand','Marker Felt','Chalkboard SE',cursive" font-weight="bold">
<text x="800" y="120" font-size="58" fill="#111" text-anchor="middle">Où le modèle se trompe</text><text x="500" y="355.0" font-size="34" fill="#111" text-anchor="end">classe A</text><text x="585.0" y="262" font-size="25" fill="#111" text-anchor="middle">classe A</text><text x="500" y="485.0" font-size="34" fill="#111" text-anchor="end">classe B</text><text x="715.0" y="262" font-size="25" fill="#111" text-anchor="middle">classe B</text><text x="500" y="615.0" font-size="34" fill="#111" text-anchor="end">classe C</text><text x="845.0" y="262" font-size="25" fill="#111" text-anchor="middle">classe C</text><text x="715.0" y="357.0" font-size="38" fill="#111" text-anchor="middle">0</text><text x="845.0" y="357.0" font-size="38" fill="#111" text-anchor="middle">0</text><text x="585.0" y="487.0" font-size="38" fill="#111" text-anchor="middle">0</text><text x="585.0" y="617.0" font-size="38" fill="#111" text-anchor="middle">0</text><text x="500" y="210" font-size="34" fill="#2b6fd6" text-anchor="end">vrai ↓</text><text x="715.0" y="210" font-size="34" fill="#2b6fd6" text-anchor="middle">prédit →</text><text x="960" y="400" font-size="36" fill="#d63a2f" text-anchor="start">B ↔ C : mélangées</text><text x="960" y="320" font-size="34" fill="#111" text-anchor="start">A : jamais confondue</text><text x="520" y="760" font-size="34" fill="#2b6fd6" text-anchor="start">diagonale = bonnes réponses</text><text x="560" y="820" font-size="34" fill="#d63a2f" text-anchor="start">les erreurs : entre B et C</text>
</g>
</svg>