<svg xmlns="http://www.w3.org/2000/svg" viewBox="0 0 1600 900" width="1600" height="900">
<defs>
<filter id="wob" x="-5%" y="-5%" width="110%" height="110%"><feTurbulence type="fractalNoise" baseFrequency="0.02" numOctaves="2" seed="7" result="n"/><feDisplacementMap in="SourceGraphic" in2="n" scale="3.5"/></filter>
<filter id="wobt" x="-5%" y="-5%" width="110%" height="110%"><feTurbulence type="fractalNoise" baseFrequency="0.03" numOctaves="1" seed="3" result="n"/><feDisplacementMap in="SourceGraphic" in2="n" scale="2.5"/></filter>
<pattern id="hatchR" width="12" height="12" patternUnits="userSpaceOnUse" patternTransform="rotate(45)"><line x1="0" y1="0" x2="0" y2="12" stroke="#d63a2f" stroke-width="2.4" opacity="0.55"/></pattern>
<pattern id="hatchK" width="9" height="9" patternUnits="userSpaceOnUse" patternTransform="rotate(-35)"><line x1="0" y1="0" x2="0" y2="9" stroke="#111" stroke-width="1.3" opacity="0.4"/></pattern>
<marker id="arr" viewBox="0 0 12 12" refX="9" refY="6" markerWidth="9" markerHeight="9" orient="auto"><path d="M1 1 L10 6 L1 11" fill="none" stroke="context-stroke" stroke-width="2" stroke-linecap="round" stroke-linejoin="round"/></marker>
</defs>
<rect width="1600" height="900" fill="#fff"/>
<g filter="url(#wob)" fill="none" stroke="#111" stroke-width="3" stroke-linecap="round" stroke-linejoin="round">
<path d="M436 142 C660 152 940 146 1164 140" stroke="#d63a2f" stroke-width="3.5"/><g stroke-width="2" opacity="0.7"><path d="M100 741 l6 1"/><path d="M137 739 l8 1"/><path d="M174 737 l10 1"/><path d="M211 735 l7 1"/><path d="M248 742 l9 1"/><path d="M285 740 l6 1"/><path d="M322 738 l8 1"/><path d="M359 736 l10 1"/><path d="M396 734 l7 1"/><path d="M433 741 l9 1"/><path d="M470 739 l6 1"/><path d="M507 737 l8 1"/><path d="M544 735 l10 1"/><path d="M581 742 l7 1"/><path d="M618 740 l9 1"/><path d="M655 738 l6 1"/><path d="M692 736 l8 1"/><path d="M729 734 l10 1"/><path d="M766 741 l7 1"/><path d="M803 739 l9 1"/><path d="M840 737 l6 1"/><path d="M877 735 l8 1"/><path d="M914 742 l10 1"/><path d="M951 740 l7 1"/><path d="M988 738 l9 1"/><path d="M1025 736 l6 1"/><path d="M1062 734 l8 1"/><path d="M1099 741 l10 1"/><path d="M1136 739 l7 1"/><path d="M1173 737 l9 1"/><path d="M1210 735 l6 1"/><path d="M1247 742 l8 1"/><path d="M1284 740 l10 1"/><path d="M1321 738 l7 1"/><path d="M1358 736 l9 1"/><path d="M1395 734 l6 1"/><path d="M1432 741 l8 1"/><path d="M1469 739 l10 1"/></g><path d="M330 575 C327 630 333 680 340 718 C425 726 505 722 590 718 C597 680 603 630 600 575"/><path d="M1000 575 C997 630 1003 680 1010 718 C1095 726 1175 722 1260 718 C1267 680 1273 630 1270 575"/><g transform="translate(457,620) rotate(-4)"><rect x="-105.0" y="-20.0" width="210" height="40" fill="#fff" stroke="#111" stroke-width="2.6"/></g><g transform="translate(465,664) rotate(0)"><rect x="-105.0" y="-20.0" width="210" height="40" fill="#fff" stroke="#111" stroke-width="2.6"/></g><g transform="translate(473,708) rotate(4)"><rect x="-105.0" y="-20.0" width="210" height="40" fill="#fff" stroke="#111" stroke-width="2.6"/></g><g transform="translate(1127,620) rotate(4)"><rect x="-105.0" y="-20.0" width="210" height="40" fill="#fff" stroke="#111" stroke-width="2.6"/></g><g transform="translate(1135,664) rotate(0)"><rect x="-105.0" y="-20.0" width="210" height="40" fill="#fff" stroke="#111" stroke-width="2.6"/></g><g transform="translate(1143,708) rotate(-4)"><rect x="-105.0" y="-20.0" width="210" height="40" fill="#fff" stroke="#111" stroke-width="2.6"/></g><g transform="translate(800,720) scale(1) ">
<g transform="skewX(-6)"><path d="M-40 -152 C-72 -122 -74 -60 -54 -22 C-32 2 34 2 50 -26 C68 -72 64 -128 32 -154 C10 -170 -20 -168 -40 -152 Z" fill="#111"/>
<path d="M42 -126 C48 -106 48 -84 44 -66" stroke="#fff" stroke-width="2.4" opacity="0.5"/>
<circle cx="-22" cy="-108" r="9" fill="#fff" stroke="none"/><circle cx="12" cy="-110" r="9" fill="#fff" stroke="none"/>
<path d="M-14 -88 L6 -88" stroke="#fff" stroke-width="3"/></g>
<path d="M-28 -6 L-40 44 M-40 44 L-62 50 M22 -8 L36 44 M36 44 L58 46" stroke-width="6"/>
<path d="M-52 -112 C-80 -122 -102 -146 -113 -170 M-48 -82 C-80 -96 -104 -134 -118 -160" stroke-width="6"/><circle cx="-114" cy="-172" r="7" fill="#111"/><circle cx="-119" cy="-160" r="7" fill="#111"/></g><g transform="translate(680,545) rotate(-10)"><rect x="-60.0" y="-23.0" width="120" height="46" fill="#fff" stroke="#2b6fd6" stroke-width="2.6"/></g><path d="M770 435 C740 470 715 500 700 518" stroke="#2b6fd6" stroke-width="2.2" marker-end="url(#arr)"/>
</g>
<g filter="url(#wobt)" font-family="'Bradley Hand','Marker Felt','Chalkboard SE',cursive" font-weight="bold">
<text x="800" y="120" font-size="58" fill="#111" text-anchor="middle">Une catégorie ou un nombre ?</text><text x="465" y="290" font-size="46" fill="#d63a2f" text-anchor="middle">classification</text><text x="465" y="335" font-size="34" fill="#111" text-anchor="middle">→ une catégorie</text><text x="1135" y="290" font-size="46" fill="#d63a2f" text-anchor="middle">régression</text><text x="1135" y="335" font-size="34" fill="#111" text-anchor="middle">→ un nombre</text><text x="457" y="630" font-size="28" fill="#111" text-anchor="middle">spam ?</text><text x="465" y="674" font-size="28" fill="#111" text-anchor="middle">maladie ?</text><text x="473" y="718" font-size="28" fill="#111" text-anchor="middle">genre musical</text><text x="1127" y="630" font-size="28" fill="#111" text-anchor="middle">ventes</text><text x="1135" y="674" font-size="28" fill="#111" text-anchor="middle">prix maison</text><text x="1143" y="718" font-size="28" fill="#111" text-anchor="middle">température</text><text x="680" y="558" font-size="34" fill="#2b6fd6" text-anchor="middle">?</text><text x="800" y="420" font-size="36" fill="#2b6fd6" text-anchor="middle">la cible dit tout</text>
</g>
</svg>